<svg width="24" height="29" viewBox="0 0 24 29" fill="none" xmlns="http://www.w3.org/2000/svg">
<path fill-rule="evenodd" clip-rule="evenodd" d="M6.21053 13.3174C6.21053 13.1518 6.07621 13.0174 5.91053 13.0174H4.19474C4.02905 13.0174 3.89474 13.1518 3.89474 13.3174V22.0527C3.89474 22.2184 4.02905 22.3528 4.19474 22.3528H5.91053C6.07621 22.3528 6.21053 22.2184 6.21053 22.0527V13.3174ZM13.1579 13.3174C13.1579 13.1518 13.0236 13.0174 12.8579 13.0174H11.1421C10.9764 13.0174 10.8421 13.1518 10.8421 13.3174V22.0527C10.8421 22.2184 10.9764 22.3528 11.1421 22.3528H12.8579C13.0236 22.3528 13.1579 22.2184 13.1579 22.0527V13.3174ZM23 26.3536C23 25.6171 22.4029 25.02 21.6664 25.02H2.33362C1.59708 25.02 1 25.6171 1 26.3536C1 27.0901 1.59708 27.6872 2.33362 27.6872H21.6664C22.4029 27.6872 23 27.0901 23 26.3536ZM20.1053 13.3174C20.1053 13.1518 19.971 13.0174 19.8053 13.0174H18.0895C17.9238 13.0174 17.7895 13.1518 17.7895 13.3174V22.0527C17.7895 22.2184 17.9238 22.3528 18.0895 22.3528H19.8053C19.9709 22.3528 20.1053 22.2184 20.1053 22.0527V13.3174ZM17.7263 7.49745C17.8129 7.54988 17.7757 7.68298 17.6745 7.68298H6.32548C6.22428 7.68298 6.18711 7.54988 6.27367 7.49745L12 4.02888L17.7263 7.49745ZM12.6221 1.39199C12.2397 1.16023 11.7603 1.16023 11.3779 1.39199L1.57794 7.33264C1.21914 7.55014 1 7.93925 1 8.35882V9.15021C1 9.81295 1.53726 10.3502 2.2 10.3502H21.8C22.4627 10.3502 23 9.81296 23 9.15021V8.35882C23 7.93925 22.7809 7.55014 22.4221 7.33264L12.6221 1.39199Z" fill="#273239"/>
</svg>
