<svg width="65" height="68" viewBox="0 0 65 68" fill="none" xmlns="http://www.w3.org/2000/svg">
<path d="M4.91603 65H1.26803V56.996H4.83203C6.22403 56.996 7.07603 57.836 7.07603 59.036C7.07603 60.044 6.40403 60.716 5.67203 60.872C6.52403 61.004 7.23203 61.88 7.23203 62.84C7.23203 64.124 6.38003 65 4.91603 65ZM4.66403 60.464C5.56403 60.464 6.04403 59.912 6.04403 59.18C6.04403 58.46 5.56403 57.884 4.66403 57.884H2.26403V60.464H4.66403ZM4.71203 64.112C5.64803 64.112 6.20003 63.584 6.20003 62.732C6.20003 62 5.69603 61.352 4.71203 61.352H2.26403V64.112H4.71203ZM9.22291 58.376C8.89891 58.376 8.62291 58.112 8.62291 57.776C8.62291 57.44 8.89891 57.164 9.22291 57.164C9.55891 57.164 9.83491 57.44 9.83491 57.776C9.83491 58.112 9.55891 58.376 9.22291 58.376ZM9.67891 65H8.77891V59.204H9.67891V65ZM12.3742 65H11.4742V56.996H12.3742V65ZM15.0695 65H14.1695V56.996H15.0695V65ZM20.9906 65H19.9946V56.996H23.2106C24.8186 56.996 25.7186 58.1 25.7186 59.408C25.7186 60.716 24.7946 61.82 23.2106 61.82H20.9906V65ZM23.0906 60.932C24.0386 60.932 24.6866 60.308 24.6866 59.408C24.6866 58.508 24.0386 57.884 23.0906 57.884H20.9906V60.932H23.0906ZM31.2912 65H30.3912V64.34C29.9112 64.868 29.2512 65.144 28.4712 65.144C27.4872 65.144 26.4432 64.484 26.4432 63.224C26.4432 61.928 27.4872 61.316 28.4712 61.316C29.2632 61.316 29.9232 61.568 30.3912 62.108V61.064C30.3912 60.284 29.7672 59.84 28.9272 59.84C28.2312 59.84 27.6672 60.092 27.1512 60.644L26.7312 60.02C27.3552 59.372 28.0992 59.06 29.0472 59.06C30.2712 59.06 31.2912 59.612 31.2912 61.016V65ZM28.7952 64.496C29.4312 64.496 30.0432 64.256 30.3912 63.776V62.684C30.0432 62.204 29.4312 61.964 28.7952 61.964C27.9552 61.964 27.3672 62.492 27.3672 63.236C27.3672 63.968 27.9552 64.496 28.7952 64.496ZM32.7713 67.268L32.9153 66.452C33.0473 66.512 33.2633 66.548 33.4073 66.548C33.8033 66.548 34.0673 66.416 34.2713 65.936L34.6553 65.06L32.2313 59.204H33.2033L35.1353 63.956L37.0553 59.204H38.0393L35.1353 66.176C34.7873 67.016 34.1993 67.34 33.4313 67.352C33.2393 67.352 32.9393 67.316 32.7713 67.268ZM46.8741 65H45.9741V61.064C45.9741 60.332 45.6501 59.864 44.9061 59.864C44.3061 59.864 43.6701 60.296 43.3701 60.752V65H42.4701V61.064C42.4701 60.332 42.1581 59.864 41.4021 59.864C40.8141 59.864 40.1901 60.296 39.8781 60.764V65H38.9781V59.204H39.8781V60.044C40.1181 59.672 40.8981 59.06 41.7501 59.06C42.6381 59.06 43.1421 59.54 43.3101 60.14C43.6341 59.612 44.4141 59.06 45.2541 59.06C46.3101 59.06 46.8741 59.648 46.8741 60.812V65ZM51.2855 65.144C49.5695 65.144 48.3335 63.908 48.3335 62.096C48.3335 60.416 49.5335 59.06 51.1895 59.06C52.9415 59.06 53.9735 60.428 53.9735 62.168V62.396H49.2815C49.3535 63.488 50.1215 64.4 51.3695 64.4C52.0295 64.4 52.7015 64.136 53.1575 63.668L53.5895 64.256C53.0135 64.832 52.2335 65.144 51.2855 65.144ZM53.0855 61.736C53.0735 60.872 52.4975 59.804 51.1775 59.804C49.9415 59.804 49.3295 60.848 49.2815 61.736H53.0855ZM60.2433 65H59.3433V61.208C59.3433 60.188 58.8273 59.864 58.0473 59.864C57.3393 59.864 56.6673 60.296 56.3313 60.764V65H55.4313V59.204H56.3313V60.044C56.7393 59.564 57.5312 59.06 58.3953 59.06C59.6073 59.06 60.2433 59.672 60.2433 60.932V65ZM63.5046 65.144C62.6526 65.144 62.2206 64.652 62.2206 63.788V59.996H61.2606V59.204H62.2206V57.62H63.1206V59.204H64.2966V59.996H63.1206V63.596C63.1206 64.028 63.3126 64.34 63.7086 64.34C63.9606 64.34 64.2006 64.232 64.3206 64.1L64.5846 64.772C64.3566 64.988 64.0326 65.144 63.5046 65.144Z" fill="#0D1B1F"/>
<circle cx="32" cy="24" r="24" fill="#FD6505"/>
<path fill-rule="evenodd" clip-rule="evenodd" d="M37.3562 35C39.5222 35 40.6 33.9226 40.6 31.7882V22.4711C40.6 21.1474 40.443 20.5728 39.6059 19.7313L33.8404 13.9748C33.0452 13.1744 32.386 13 31.214 13H26.2438C24.0882 13 23 14.0877 23 16.222V31.7882C23 33.9328 24.0778 35 26.2438 35H37.3562ZM37.2725 33.3479H26.317C25.2392 33.3479 24.6847 32.7836 24.6847 31.7575V16.2528C24.6847 15.2369 25.2392 14.6521 26.3275 14.6521H30.9838V20.6138C30.9838 21.9067 31.643 22.5429 32.951 22.5429H38.9153V31.7575C38.9153 32.7836 38.3608 33.3479 37.2725 33.3479ZM38.591 20.9935H33.1394C32.7208 20.9935 32.5639 20.8293 32.5639 20.4188V14.9701L38.591 20.9935ZM28.0592 28.125H36.0012C36.5169 28.125 36.9145 28.5328 36.9145 29.0465C36.9145 29.5507 36.5158 29.9371 36.0012 29.9371H28.0592C27.5356 29.9371 27.125 29.5524 27.125 29.0465C27.125 28.5313 27.5348 28.125 28.0592 28.125ZM36.0012 24.825H28.0592C27.5348 24.825 27.125 25.2313 27.125 25.7465C27.125 26.2524 27.5356 26.6371 28.0592 26.6371H36.0012C36.5158 26.6371 36.9145 26.2507 36.9145 25.7465C36.9145 25.2328 36.5169 24.825 36.0012 24.825Z" fill="white"/>
</svg>
