<svg width="61" height="82" viewBox="0 0 61 82" fill="none" xmlns="http://www.w3.org/2000/svg">
<path d="M5.05222 65.144C2.74822 65.144 0.936219 63.464 0.936219 61.004C0.936219 58.544 2.74822 56.864 5.05222 56.864C6.46822 56.864 7.45222 57.548 8.08822 58.448L7.24822 58.916C6.79222 58.244 5.96422 57.752 5.05222 57.752C3.30022 57.752 1.96822 59.096 1.96822 61.004C1.96822 62.9 3.30022 64.256 5.05222 64.256C5.96422 64.256 6.79222 63.776 7.24822 63.092L8.10022 63.56C7.42822 64.472 6.46822 65.144 5.05222 65.144ZM10.2336 65H9.33359V59.204H10.2336V60.14C10.7016 59.528 11.3736 59.084 12.1656 59.084V60.008C12.0576 59.984 11.9496 59.972 11.8056 59.972C11.2536 59.972 10.4976 60.428 10.2336 60.896V65ZM15.9105 65.144C14.1945 65.144 12.9585 63.908 12.9585 62.096C12.9585 60.416 14.1585 59.06 15.8145 59.06C17.5665 59.06 18.5985 60.428 18.5985 62.168V62.396H13.9065C13.9785 63.488 14.7465 64.4 15.9945 64.4C16.6545 64.4 17.3265 64.136 17.7825 63.668L18.2145 64.256C17.6385 64.832 16.8585 65.144 15.9105 65.144ZM17.7105 61.736C17.6985 60.872 17.1225 59.804 15.8025 59.804C14.5665 59.804 13.9545 60.848 13.9065 61.736H17.7105ZM25.1562 65H24.2563V64.136C23.8243 64.724 23.1163 65.144 22.3003 65.144C20.7883 65.144 19.7203 63.992 19.7203 62.108C19.7203 60.26 20.7763 59.06 22.3003 59.06C23.0803 59.06 23.7883 59.444 24.2563 60.08V56.996H25.1562V65ZM22.5163 64.34C23.2363 64.34 23.9323 63.932 24.2563 63.428V60.8C23.9323 60.296 23.2363 59.864 22.5163 59.864C21.3523 59.864 20.6562 60.824 20.6562 62.108C20.6562 63.392 21.3523 64.34 22.5163 64.34ZM27.4026 58.376C27.0786 58.376 26.8026 58.112 26.8026 57.776C26.8026 57.44 27.0786 57.164 27.4026 57.164C27.7386 57.164 28.0146 57.44 28.0146 57.776C28.0146 58.112 27.7386 58.376 27.4026 58.376ZM27.8586 65H26.9586V59.204H27.8586V65ZM31.1179 65.144C30.2659 65.144 29.8339 64.652 29.8339 63.788V59.996H28.8739V59.204H29.8339V57.62H30.7339V59.204H31.9099V59.996H30.7339V63.596C30.7339 64.028 30.9259 64.34 31.3219 64.34C31.5739 64.34 31.8139 64.232 31.9339 64.1L32.1979 64.772C31.9699 64.988 31.6459 65.144 31.1179 65.144ZM40.103 65.144C37.799 65.144 35.987 63.464 35.987 61.004C35.987 58.544 37.799 56.864 40.103 56.864C41.519 56.864 42.503 57.548 43.139 58.448L42.299 58.916C41.843 58.244 41.015 57.752 40.103 57.752C38.351 57.752 37.019 59.096 37.019 61.004C37.019 62.9 38.351 64.256 40.103 64.256C41.015 64.256 41.843 63.776 42.299 63.092L43.151 63.56C42.479 64.472 41.519 65.144 40.103 65.144ZM48.9084 65H48.0084V64.34C47.5284 64.868 46.8684 65.144 46.0884 65.144C45.1044 65.144 44.0604 64.484 44.0604 63.224C44.0604 61.928 45.1044 61.316 46.0884 61.316C46.8804 61.316 47.5404 61.568 48.0084 62.108V61.064C48.0084 60.284 47.3844 59.84 46.5444 59.84C45.8484 59.84 45.2844 60.092 44.7684 60.644L44.3484 60.02C44.9724 59.372 45.7164 59.06 46.6644 59.06C47.8884 59.06 48.9084 59.612 48.9084 61.016V65ZM46.4124 64.496C47.0484 64.496 47.6604 64.256 48.0084 63.776V62.684C47.6604 62.204 47.0484 61.964 46.4124 61.964C45.5724 61.964 44.9844 62.492 44.9844 63.236C44.9844 63.968 45.5724 64.496 46.4124 64.496ZM51.6125 65H50.7125V59.204H51.6125V60.14C52.0805 59.528 52.7525 59.084 53.5445 59.084V60.008C53.4365 59.984 53.3285 59.972 53.1845 59.972C52.6325 59.972 51.8765 60.428 51.6125 60.896V65ZM59.7734 65H58.8734V64.136C58.4414 64.724 57.7334 65.144 56.9174 65.144C55.4054 65.144 54.3374 63.992 54.3374 62.108C54.3374 60.26 55.3934 59.06 56.9174 59.06C57.6974 59.06 58.4054 59.444 58.8734 60.08V56.996H59.7734V65ZM57.1334 64.34C57.8534 64.34 58.5494 63.932 58.8734 63.428V60.8C58.5494 60.296 57.8534 59.864 57.1334 59.864C55.9694 59.864 55.2734 60.824 55.2734 62.108C55.2734 63.392 55.9694 64.34 57.1334 64.34ZM9.62731 79H8.63131V70.996H11.8473C13.4553 70.996 14.3553 72.1 14.3553 73.408C14.3553 74.716 13.4313 75.82 11.8473 75.82H9.62731V79ZM11.7273 74.932C12.6753 74.932 13.3233 74.308 13.3233 73.408C13.3233 72.508 12.6753 71.884 11.7273 71.884H9.62731V74.932H11.7273ZM19.9279 79H19.0279V78.34C18.5479 78.868 17.8879 79.144 17.1079 79.144C16.1239 79.144 15.0799 78.484 15.0799 77.224C15.0799 75.928 16.1239 75.316 17.1079 75.316C17.8999 75.316 18.5599 75.568 19.0279 76.108V75.064C19.0279 74.284 18.4039 73.84 17.5639 73.84C16.8679 73.84 16.3039 74.092 15.7879 74.644L15.3679 74.02C15.9919 73.372 16.7359 73.06 17.6839 73.06C18.9079 73.06 19.9279 73.612 19.9279 75.016V79ZM17.4319 78.496C18.0679 78.496 18.6799 78.256 19.0279 77.776V76.684C18.6799 76.204 18.0679 75.964 17.4319 75.964C16.5919 75.964 16.0039 76.492 16.0039 77.236C16.0039 77.968 16.5919 78.496 17.4319 78.496ZM21.408 81.268L21.552 80.452C21.684 80.512 21.9 80.548 22.044 80.548C22.44 80.548 22.704 80.416 22.908 79.936L23.292 79.06L20.868 73.204H21.84L23.772 77.956L25.692 73.204H26.676L23.772 80.176C23.424 81.016 22.836 81.34 22.068 81.352C21.876 81.352 21.576 81.316 21.408 81.268ZM35.5108 79H34.6108V75.064C34.6108 74.332 34.2868 73.864 33.5428 73.864C32.9428 73.864 32.3068 74.296 32.0068 74.752V79H31.1068V75.064C31.1068 74.332 30.7948 73.864 30.0388 73.864C29.4508 73.864 28.8268 74.296 28.5148 74.764V79H27.6148V73.204H28.5148V74.044C28.7548 73.672 29.5348 73.06 30.3868 73.06C31.2748 73.06 31.7788 73.54 31.9468 74.14C32.2708 73.612 33.0508 73.06 33.8908 73.06C34.9468 73.06 35.5108 73.648 35.5108 74.812V79ZM39.9223 79.144C38.2063 79.144 36.9703 77.908 36.9703 76.096C36.9703 74.416 38.1702 73.06 39.8263 73.06C41.5783 73.06 42.6103 74.428 42.6103 76.168V76.396H37.9183C37.9902 77.488 38.7583 78.4 40.0063 78.4C40.6663 78.4 41.3383 78.136 41.7943 77.668L42.2263 78.256C41.6503 78.832 40.8703 79.144 39.9223 79.144ZM41.7223 75.736C41.7103 74.872 41.1343 73.804 39.8143 73.804C38.5783 73.804 37.9663 74.848 37.9183 75.736H41.7223ZM48.88 79H47.98V75.208C47.98 74.188 47.464 73.864 46.684 73.864C45.976 73.864 45.304 74.296 44.968 74.764V79H44.068V73.204H44.968V74.044C45.376 73.564 46.168 73.06 47.032 73.06C48.244 73.06 48.88 73.672 48.88 74.932V79ZM52.1413 79.144C51.2893 79.144 50.8573 78.652 50.8573 77.788V73.996H49.8973V73.204H50.8573V71.62H51.7573V73.204H52.9333V73.996H51.7573V77.596C51.7573 78.028 51.9493 78.34 52.3453 78.34C52.5973 78.34 52.8373 78.232 52.9573 78.1L53.2213 78.772C52.9933 78.988 52.6693 79.144 52.1413 79.144Z" fill="#0D1B1F"/>
<circle cx="30" cy="24" r="24" fill="#FD6505"/>
<path fill-rule="evenodd" clip-rule="evenodd" d="M27.6893 13.1444L19.3355 19.0417C18.7066 19.4856 19.0207 20.4753 19.7905 20.4753H21.322V28.1772L21.3282 28.2762C21.3299 28.2897 21.3319 28.3031 21.3343 28.3165H20.7187L20.6197 28.3226C20.2307 28.3713 19.9297 28.7032 19.9297 29.1055C19.9297 29.5413 20.2829 29.8945 20.7187 29.8945H22.5751L22.6741 29.8884C23.0631 29.8397 23.3641 29.5077 23.3641 29.1055C23.3641 28.7758 23.1619 28.4934 22.8749 28.3754C22.8912 28.3121 22.9 28.2457 22.9 28.1772V20.4753H25.1895V22.0042L25.1957 22.1032C25.2444 22.4922 25.5763 22.7932 25.9785 22.7932C26.4143 22.7932 26.7675 22.44 26.7675 22.0042V20.4753H29.0571V22.0042L29.0632 22.1032C29.1119 22.4922 29.4438 22.7932 29.846 22.7932C30.2818 22.7932 30.635 22.44 30.635 22.0042V20.4753H32.9246V22.0042L32.9307 22.1032C32.9794 22.4922 33.3114 22.7932 33.7136 22.7932C34.1493 22.7932 34.5026 22.44 34.5026 22.0042V20.4753H36.4982C37.268 20.4753 37.5821 19.4856 36.9532 19.0417L28.5993 13.1444C28.3266 12.9519 27.9621 12.9519 27.6893 13.1444ZM33.7136 18.7089C33.7244 18.7089 33.7352 18.7091 33.746 18.7095L28.1443 14.7544L22.2771 18.8964H33.203C33.3406 18.7794 33.5188 18.7089 33.7136 18.7089ZM26.2879 24.1392H39.2828C40.2312 24.1392 41 24.9081 41 25.8565V33.2827C41 34.2311 40.2312 35 39.2828 35H26.2879C25.3395 35 24.5707 34.2311 24.5707 33.2827V25.8565C24.5707 24.9081 25.3395 24.1392 26.2879 24.1392ZM39.2828 25.7173H26.2879C26.211 25.7173 26.1487 25.7796 26.1487 25.8565V27.3882H39.422V25.8565C39.422 25.7796 39.3597 25.7173 39.2828 25.7173ZM26.1487 33.2827V28.9662H39.422V33.2827C39.422 33.3596 39.3597 33.4219 39.2828 33.4219H26.2879C26.211 33.4219 26.1487 33.3596 26.1487 33.2827ZM35.0059 32.3544C35.4367 32.3544 35.7992 32.1128 36.0341 31.7641C36.269 32.1128 36.6315 32.3544 37.0623 32.3544C37.7767 32.3544 38.3546 31.7315 38.3546 30.9626C38.3546 30.1926 37.7767 29.5696 37.0623 29.5696C36.6315 29.5696 36.269 29.8123 36.0341 30.161C35.7992 29.8123 35.4367 29.5696 35.0059 29.5696C34.2925 29.5696 33.7136 30.1926 33.7136 30.9626C33.7136 31.7315 34.2925 32.3544 35.0059 32.3544Z" fill="white"/>
</svg>
