<svg width="24" height="24" viewBox="0 0 24 24" fill="none" xmlns="http://www.w3.org/2000/svg">
<g clip-path="url(#clip0_1039_607)">
<rect x="2" y="2" width="20" height="20" rx="2" fill="#60C554"/>
<mask id="mask0_1039_607" style="mask-type:alpha" maskUnits="userSpaceOnUse" x="0" y="0" width="24" height="24">
<rect width="24" height="24" fill="#D9D9D9"/>
</mask>
<g mask="url(#mask0_1039_607)">
<path d="M9.99999 13.6L15.9 7.69999C16.0833 7.51665 16.3167 7.42499 16.6 7.42499C16.8833 7.42499 17.1167 7.51665 17.3 7.69999C17.4833 7.88332 17.575 8.11665 17.575 8.39999C17.575 8.68332 17.4833 8.91665 17.3 9.09999L10.7 15.7C10.5 15.9 10.2667 16 9.99999 16C9.73332 16 9.49999 15.9 9.29999 15.7L6.69999 13.1C6.51665 12.9167 6.42499 12.6833 6.42499 12.4C6.42499 12.1167 6.51665 11.8833 6.69999 11.7C6.88332 11.5167 7.11665 11.425 7.39999 11.425C7.68332 11.425 7.91665 11.5167 8.09999 11.7L9.99999 13.6Z" fill="white"/>
</g>
</g>
<defs>
<clipPath id="clip0_1039_607">
<rect x="2" y="2" width="20" height="20" rx="2" fill="white"/>
</clipPath>
</defs>
</svg>
