<svg width="6" height="10" viewBox="0 0 6 10" fill="none" xmlns="http://www.w3.org/2000/svg">
<path d="M0.229167 9.0625C0.0763889 8.90972 0 8.71528 0 8.47917C0 8.24306 0.0763889 8.04861 0.229167 7.89583L3.47917 4.64583L0.229167 1.39583C0.0763889 1.24306 0 1.04861 0 0.8125C0 0.576389 0.0763889 0.381945 0.229167 0.229167C0.381944 0.0763889 0.576389 0 0.8125 0C1.04861 0 1.24306 0.0763889 1.39583 0.229167L5.22917 4.0625C5.3125 4.14583 5.37153 4.23611 5.40625 4.33333C5.44097 4.43056 5.45833 4.53472 5.45833 4.64583C5.45833 4.75695 5.44097 4.86111 5.40625 4.95833C5.37153 5.05556 5.3125 5.14583 5.22917 5.22917L1.39583 9.0625C1.24306 9.21528 1.04861 9.29167 0.8125 9.29167C0.576389 9.29167 0.381944 9.21528 0.229167 9.0625Z" fill="#BA1B19"/>
</svg>
