<svg width="19" height="22" viewBox="0 0 19 22" fill="none" xmlns="http://www.w3.org/2000/svg">
<path fill-rule="evenodd" clip-rule="evenodd" d="M9.71644 0.163689C9.06614 -0.243087 8.27827 0.146472 8.2163 0.910817C8.20022 1.10685 8.19523 1.31113 8.19797 1.56043L8.20606 1.98697C8.2049 1.99049 8.20267 1.99277 8.19865 1.99457L7.77202 2.08423L7.49351 2.14706L7.26251 2.20711L7.0505 2.27245C5.81695 2.68364 4.78356 3.40908 3.95503 4.43801C3.04686 5.56647 2.55495 6.84628 2.4966 8.26236C2.49347 8.33882 2.49069 8.41323 2.48823 8.48723L2.47714 8.93923L2.47235 9.45946L2.47417 10.8046L2.46862 11.0552C2.42274 12.0475 2.09267 12.9158 1.46522 13.6695C1.15909 14.0369 0.851825 14.4154 0.542533 14.8057C-0.174894 15.7121 -0.181499 16.8343 0.526907 17.7333C0.987125 18.3172 1.62236 18.5965 2.41218 18.5982L5.312 18.5987L5.32213 18.6739C5.64894 20.7348 7.52663 22.1302 9.44678 21.9904L9.64393 21.9711L9.83845 21.9425C11.4477 21.6652 12.7553 20.4295 13.0702 18.6815L13.0828 18.5987L16.0021 18.5982L16.1963 18.5919C16.8971 18.5465 17.4721 18.2552 17.8972 17.7096C18.5698 16.8453 18.5246 15.6392 17.7961 14.7579L16.8533 13.6192C16.2456 12.8739 15.9234 12.041 15.8994 11.1204L15.8893 10.5845L15.8784 9.18157L15.8617 8.25713C15.8275 7.11575 15.4856 6.04116 14.8552 5.06718C13.7544 3.36539 12.2009 2.3345 10.2171 2.00386L10.1608 1.99293C10.1496 1.98785 10.1499 1.97896 10.151 1.95496C10.1512 1.94974 10.1515 1.94381 10.1516 1.93704L10.1561 1.5711C10.1561 1.33072 10.1501 1.09727 10.1376 0.869353C10.1211 0.572822 9.97157 0.323369 9.71644 0.163689ZM11.3906 18.451L11.4139 18.2817H6.93446L6.96375 18.4555L6.9974 18.6191C7.24608 19.6403 8.16085 20.3686 9.20401 20.3506C10.3012 20.3308 11.2445 19.5133 11.3906 18.451ZM8.25086 3.92946C6.09587 4.35792 4.47548 6.26868 4.40998 8.46437L4.39859 9.00112L4.38362 10.6975L4.37076 11.219C4.36932 11.2611 4.36777 11.3035 4.3661 11.3469C4.32822 12.3366 4.0476 13.2557 3.52852 14.0538L3.38428 14.2694L3.23208 14.4844L3.05711 14.7191L2.15478 15.8733L2.10013 15.9453C2.0005 16.0774 1.95917 16.1463 1.94477 16.2151C1.89621 16.448 2.01929 16.6142 2.26315 16.6482L2.36016 16.6547L15.91 16.6562C16.189 16.657 16.3196 16.6024 16.3966 16.4318C16.4665 16.2767 16.4236 16.1564 16.2464 15.9472L16.0192 15.6723L15.5309 15.0715C15.514 15.0513 15.4971 15.0311 15.4796 15.0104C14.4333 13.7684 13.9179 12.3476 13.9421 10.7446C13.9518 10.0863 13.9516 9.41116 13.9421 8.71185C13.931 7.87616 13.7672 7.1348 13.426 6.45952C12.4653 4.55909 10.3333 3.5155 8.25086 3.92946Z" fill="#273239"/>
</svg>
