<svg width="18" height="22" viewBox="0 0 18 22" fill="none" xmlns="http://www.w3.org/2000/svg">
<path fill-rule="evenodd" clip-rule="evenodd" d="M7.125 3.875V11.1853C7.78721 11.5289 8.25 12.3135 8.25 13.2266C8.25 14.1396 7.78721 14.9243 7.125 15.2679V18.125C7.125 18.6169 6.78921 19.0156 6.375 19.0156C5.96079 19.0156 5.625 18.6169 5.625 18.125V15.2679C4.96279 14.9243 4.5 14.1396 4.5 13.2266C4.5 12.3135 4.96279 11.5289 5.625 11.1853V3.875C5.625 3.38312 5.96079 2.98438 6.375 2.98438C6.78921 2.98438 7.125 3.38312 7.125 3.875ZM12.375 5.84152C13.0372 6.1851 13.5 6.96978 13.5 7.88281C13.5 8.79584 13.0372 9.58052 12.375 9.9241V18.125C12.375 18.6169 12.0392 19.0156 11.625 19.0156C11.2108 19.0156 10.875 18.6169 10.875 18.125V9.9241C10.2128 9.58052 9.75 8.79584 9.75 7.88281C9.75 6.96978 10.2128 6.1851 10.875 5.84152V3.875C10.875 3.38312 11.2108 2.98438 11.625 2.98438C12.0392 2.98438 12.375 3.38312 12.375 3.875V5.84152Z" fill="#0D1B1F"/>
</svg>
