<svg width="24" height="24" viewBox="0 0 24 24" fill="none" xmlns="http://www.w3.org/2000/svg">
<path fill-rule="evenodd" clip-rule="evenodd" d="M12.7748 2C8.48522 2 4.79808 4.60888 3.28341 8.32062L2.67975 7.25482C2.5217 6.95744 2.20901 6.77452 1.87177 6.78217C1.55682 6.78918 1.26896 6.96151 1.11451 7.23551C0.960065 7.5095 0.961966 7.84449 1.11951 8.11673L2.75405 11.0361C2.99024 11.4542 3.51622 11.6101 3.9428 11.3883L6.84967 9.90541C7.14715 9.76932 7.34602 9.48157 7.36778 9.15573C7.38955 8.8299 7.23071 8.51834 6.95397 8.34407C6.67723 8.16979 6.32706 8.16079 6.04169 8.32062L4.97367 8.86742C6.25078 5.88575 9.25996 3.77941 12.7748 3.77941C17.4557 3.77941 21.2169 7.49311 21.2169 12.0833C21.2169 16.6735 17.4557 20.3873 12.7748 20.3873C8.77056 20.3873 5.43505 17.645 4.55575 13.9925C4.48109 13.6829 4.2466 13.4366 3.9406 13.3463C3.63461 13.256 3.3036 13.3355 3.07226 13.5549C2.84092 13.7742 2.7444 14.1 2.81906 14.4096C3.89024 18.8592 7.95493 22.1667 12.7748 22.1667C18.4067 22.1667 23 17.6481 23 12.0833C23 6.51857 18.4067 2 12.7748 2V2ZM12.4241 7.34666C12.186 7.34911 11.9588 7.44648 11.7931 7.61709C11.6274 7.78769 11.5369 8.01735 11.5419 8.2549V13C11.5417 13.2704 11.6647 13.5261 11.8762 13.6951L14.8481 16.0676C15.0969 16.2663 15.4331 16.3175 15.73 16.2017C16.0268 16.086 16.2392 15.821 16.2872 15.5066C16.3352 15.1922 16.2114 14.8761 15.9625 14.6775L13.325 12.5737V8.2549C13.33 8.01413 13.237 7.78161 13.0672 7.61045C12.8975 7.4393 12.6654 7.34412 12.4241 7.34666Z" fill="#273239"/>
</svg>
