<svg width="24" height="24" viewBox="0 0 24 24" fill="none" xmlns="http://www.w3.org/2000/svg">
<path fill-rule="evenodd" clip-rule="evenodd" d="M12.5806 1.2358C12.1813 0.9214 11.6187 0.9214 11.2194 1.2358L2.41944 8.1658C2.15459 8.37437 2 8.69288 2 9.03V19.92C2 21.618 3.36494 23 5.05556 23H8.6H15.2H18.7444C20.4351 23 21.8 21.618 21.8 19.92V9.03C21.8 8.69288 21.6454 8.37437 21.3806 8.1658L12.5806 1.2358ZM16.3 21.1501H19.0214C19.5099 21.1501 19.9116 20.7433 19.9116 20.2345V9.45922L11.9 3.15007L3.88837 9.45922V20.2345C3.88837 20.7433 4.29013 21.1501 4.77856 21.1501H7.5V12C7.5 11.3925 7.99249 10.9 8.6 10.9H15.2C15.8075 10.9 16.3 11.3925 16.3 12V21.1501ZM9.7 21.1501V13.1H14.1V21.1501H9.7Z" fill="white"/>
</svg>
