<svg width="15" height="20" viewBox="0 0 15 20" fill="none" xmlns="http://www.w3.org/2000/svg">
<path d="M7.38274 0C3.57694 0 0.480713 3.09623 0.480713 6.90199C0.480713 11.6251 6.65736 18.5588 6.92033 18.8517C7.16734 19.1268 7.5986 19.1263 7.84516 18.8517C8.10813 18.5588 14.2848 11.6251 14.2848 6.90199C14.2847 3.09623 11.1885 0 7.38274 0ZM7.38274 10.3746C5.46795 10.3746 3.9102 8.81679 3.9102 6.90199C3.9102 4.9872 5.46799 3.42945 7.38274 3.42945C9.2975 3.42945 10.8553 4.98724 10.8553 6.90203C10.8553 8.81682 9.2975 10.3746 7.38274 10.3746Z" fill="#63AF23"/>
</svg>
