<svg width="68" height="82" viewBox="0 0 68 82" fill="none" xmlns="http://www.w3.org/2000/svg">
<path d="M21.4615 65H20.4655V58.412L17.7415 65H17.3335L14.6215 58.412V65H13.6255V56.996H15.0535L17.5375 63.02L20.0335 56.996H21.4615V65ZM27.8166 65H26.9166V64.34C26.4366 64.868 25.7766 65.144 24.9966 65.144C24.0126 65.144 22.9686 64.484 22.9686 63.224C22.9686 61.928 24.0126 61.316 24.9966 61.316C25.7886 61.316 26.4486 61.568 26.9166 62.108V61.064C26.9166 60.284 26.2926 59.84 25.4526 59.84C24.7566 59.84 24.1926 60.092 23.6766 60.644L23.2566 60.02C23.8806 59.372 24.6246 59.06 25.5726 59.06C26.7966 59.06 27.8166 59.612 27.8166 61.016V65ZM25.3206 64.496C25.9566 64.496 26.5686 64.256 26.9166 63.776V62.684C26.5686 62.204 25.9566 61.964 25.3206 61.964C24.4806 61.964 23.8926 62.492 23.8926 63.236C23.8926 63.968 24.4806 64.496 25.3206 64.496ZM34.4327 65H33.5327V61.208C33.5327 60.188 33.0167 59.864 32.2367 59.864C31.5287 59.864 30.8567 60.296 30.5207 60.764V65H29.6207V59.204H30.5207V60.044C30.9287 59.564 31.7207 59.06 32.5847 59.06C33.7967 59.06 34.4327 59.672 34.4327 60.932V65ZM40.7541 65H39.8541V64.34C39.3741 64.868 38.7141 65.144 37.9341 65.144C36.9501 65.144 35.9061 64.484 35.9061 63.224C35.9061 61.928 36.9501 61.316 37.9341 61.316C38.7261 61.316 39.3861 61.568 39.8541 62.108V61.064C39.8541 60.284 39.2301 59.84 38.3901 59.84C37.6941 59.84 37.1301 60.092 36.6141 60.644L36.1941 60.02C36.8181 59.372 37.5621 59.06 38.5101 59.06C39.7341 59.06 40.7541 59.612 40.7541 61.016V65ZM38.2581 64.496C38.8941 64.496 39.5061 64.256 39.8541 63.776V62.684C39.5061 62.204 38.8941 61.964 38.2581 61.964C37.4181 61.964 36.8301 62.492 36.8301 63.236C36.8301 63.968 37.4181 64.496 38.2581 64.496ZM44.8862 67.352C43.9022 67.352 43.2302 67.16 42.5462 66.488L43.0022 65.816C43.4822 66.392 44.0582 66.608 44.8862 66.608C45.8462 66.608 46.7462 66.14 46.7462 64.868V64.04C46.3262 64.628 45.6182 65.072 44.8022 65.072C43.2902 65.072 42.2222 63.944 42.2222 62.072C42.2222 60.212 43.2782 59.06 44.8022 59.06C45.5822 59.06 46.2782 59.444 46.7462 60.08V59.204H47.6462V64.832C47.6462 66.752 46.3022 67.352 44.8862 67.352ZM45.0182 64.28C45.7382 64.28 46.4342 63.836 46.7462 63.332V60.8C46.4342 60.296 45.7382 59.864 45.0182 59.864C43.8542 59.864 43.1582 60.788 43.1582 62.072C43.1582 63.344 43.8542 64.28 45.0182 64.28ZM52.0648 65.144C50.3488 65.144 49.1128 63.908 49.1128 62.096C49.1128 60.416 50.3128 59.06 51.9688 59.06C53.7208 59.06 54.7528 60.428 54.7528 62.168V62.396H50.0608C50.1328 63.488 50.9008 64.4 52.1488 64.4C52.8088 64.4 53.4808 64.136 53.9368 63.668L54.3688 64.256C53.7928 64.832 53.0128 65.144 52.0648 65.144ZM53.8648 61.736C53.8528 60.872 53.2768 59.804 51.9568 59.804C50.7208 59.804 50.1088 60.848 50.0608 61.736H53.8648ZM4.71681 79H1.06881V70.996H4.63281C6.02481 70.996 6.87681 71.836 6.87681 73.036C6.87681 74.044 6.20481 74.716 5.47281 74.872C6.32481 75.004 7.03281 75.88 7.03281 76.84C7.03281 78.124 6.18081 79 4.71681 79ZM4.46481 74.464C5.36481 74.464 5.84481 73.912 5.84481 73.18C5.84481 72.46 5.36481 71.884 4.46481 71.884H2.06481V74.464H4.46481ZM4.51281 78.112C5.44881 78.112 6.00081 77.584 6.00081 76.732C6.00081 76 5.49681 75.352 4.51281 75.352H2.06481V78.112H4.51281ZM11.1957 79.144C9.47969 79.144 8.24369 77.908 8.24369 76.096C8.24369 74.416 9.44369 73.06 11.0997 73.06C12.8517 73.06 13.8837 74.428 13.8837 76.168V76.396H9.19169C9.26369 77.488 10.0317 78.4 11.2797 78.4C11.9397 78.4 12.6117 78.136 13.0677 77.668L13.4997 78.256C12.9237 78.832 12.1437 79.144 11.1957 79.144ZM12.9957 75.736C12.9837 74.872 12.4077 73.804 11.0877 73.804C9.85169 73.804 9.23969 74.848 9.19169 75.736H12.9957ZM20.1534 79H19.2534V75.208C19.2534 74.188 18.7374 73.864 17.9574 73.864C17.2494 73.864 16.5774 74.296 16.2414 74.764V79H15.3414V73.204H16.2414V74.044C16.6494 73.564 17.4414 73.06 18.3054 73.06C19.5174 73.06 20.1534 73.672 20.1534 74.932V79ZM24.5668 79.144C22.8508 79.144 21.6148 77.908 21.6148 76.096C21.6148 74.416 22.8148 73.06 24.4708 73.06C26.2228 73.06 27.2548 74.428 27.2548 76.168V76.396H22.5628C22.6348 77.488 23.4028 78.4 24.6508 78.4C25.3108 78.4 25.9828 78.136 26.4388 77.668L26.8708 78.256C26.2948 78.832 25.5148 79.144 24.5668 79.144ZM26.3668 75.736C26.3548 74.872 25.7788 73.804 24.4588 73.804C23.2228 73.804 22.6108 74.848 22.5628 75.736H26.3668ZM29.8645 79H28.9645V73.996H28.0045V73.204H28.9645V72.76C28.9645 71.572 29.6125 70.876 30.6445 70.876C31.1005 70.876 31.5085 70.984 31.8685 71.32L31.4965 71.908C31.3045 71.74 31.0765 71.62 30.7765 71.62C30.1885 71.62 29.8645 72.028 29.8645 72.76V73.204H31.0405V73.996H29.8645V79ZM32.5549 72.376C32.2309 72.376 31.9549 72.112 31.9549 71.776C31.9549 71.44 32.2309 71.164 32.5549 71.164C32.8909 71.164 33.1669 71.44 33.1669 71.776C33.1669 72.112 32.8909 72.376 32.5549 72.376ZM33.0109 79H32.1109V73.204H33.0109V79ZM37.3623 79.144C35.6343 79.144 34.4703 77.824 34.4703 76.096C34.4703 74.38 35.6343 73.06 37.3623 73.06C38.4183 73.06 39.0423 73.492 39.4863 74.068L38.8863 74.62C38.5023 74.092 38.0103 73.864 37.4103 73.864C36.1743 73.864 35.4062 74.812 35.4062 76.096C35.4062 77.38 36.1743 78.34 37.4103 78.34C38.0103 78.34 38.5023 78.1 38.8863 77.584L39.4863 78.136C39.0423 78.712 38.4183 79.144 37.3623 79.144ZM41.1917 72.376C40.8677 72.376 40.5917 72.112 40.5917 71.776C40.5917 71.44 40.8677 71.164 41.1917 71.164C41.5277 71.164 41.8037 71.44 41.8037 71.776C41.8037 72.112 41.5277 72.376 41.1917 72.376ZM41.6477 79H40.7477V73.204H41.6477V79ZM47.967 79H47.067V78.34C46.587 78.868 45.927 79.144 45.147 79.144C44.163 79.144 43.119 78.484 43.119 77.224C43.119 75.928 44.163 75.316 45.147 75.316C45.939 75.316 46.599 75.568 47.067 76.108V75.064C47.067 74.284 46.443 73.84 45.603 73.84C44.907 73.84 44.343 74.092 43.827 74.644L43.407 74.02C44.031 73.372 44.775 73.06 45.723 73.06C46.947 73.06 47.967 73.612 47.967 75.016V79ZM45.471 78.496C46.107 78.496 46.719 78.256 47.067 77.776V76.684C46.719 76.204 46.107 75.964 45.471 75.964C44.631 75.964 44.043 76.492 44.043 77.236C44.043 77.968 44.631 78.496 45.471 78.496ZM50.6711 79H49.7711V73.204H50.6711V74.14C51.1391 73.528 51.8111 73.084 52.6031 73.084V74.008C52.4951 73.984 52.3871 73.972 52.2431 73.972C51.6911 73.972 50.9351 74.428 50.6711 74.896V79ZM54.176 72.376C53.852 72.376 53.576 72.112 53.576 71.776C53.576 71.44 53.852 71.164 54.176 71.164C54.512 71.164 54.788 71.44 54.788 71.776C54.788 72.112 54.512 72.376 54.176 72.376ZM54.632 79H53.732V73.204H54.632V79ZM59.0433 79.144C57.3273 79.144 56.0913 77.908 56.0913 76.096C56.0913 74.416 57.2913 73.06 58.9473 73.06C60.6993 73.06 61.7313 74.428 61.7313 76.168V76.396H57.0393C57.1113 77.488 57.8793 78.4 59.1273 78.4C59.7873 78.4 60.4593 78.136 60.9153 77.668L61.3473 78.256C60.7713 78.832 59.9913 79.144 59.0433 79.144ZM60.8433 75.736C60.8313 74.872 60.2553 73.804 58.9353 73.804C57.6993 73.804 57.0873 74.848 57.0393 75.736H60.8433ZM65.0251 79.144C64.0771 79.144 63.2731 78.856 62.6851 78.232L63.1531 77.584C63.5371 78.028 64.2691 78.412 65.0611 78.412C65.9491 78.412 66.4291 77.992 66.4291 77.416C66.4291 76.012 62.8411 76.876 62.8411 74.728C62.8411 73.828 63.6211 73.06 65.0011 73.06C65.9851 73.06 66.6811 73.432 67.1491 73.9L66.7291 74.524C66.3811 74.104 65.7451 73.792 65.0011 73.792C64.2091 73.792 63.7171 74.188 63.7171 74.704C63.7171 75.976 67.3051 75.136 67.3051 77.392C67.3051 78.364 66.5251 79.144 65.0251 79.144Z" fill="#0D1B1F"/>
<circle cx="34" cy="24" r="24" fill="#FD6505"/>
<path fill-rule="evenodd" clip-rule="evenodd" d="M27.3961 18.5609C28.8778 18.5609 30.0847 17.3127 30.0847 15.7804C30.0847 14.2482 28.8778 13 27.3961 13C25.9144 13 24.7074 14.2482 24.7074 15.7804C24.7074 17.3127 25.9144 18.5609 27.3961 18.5609ZM26.1793 15.7804C26.1793 15.0803 26.7288 14.5221 27.3961 14.5221C28.0633 14.5221 28.6128 15.0904 28.6128 15.7804C28.6128 16.4705 28.0731 17.0387 27.3961 17.0387C26.719 17.0387 26.1793 16.4806 26.1793 15.7804ZM25.6887 19.0683H29.1133C30.595 19.0683 31.802 20.3164 31.802 21.8386V22.8533C31.802 23.2694 31.4683 23.6144 31.066 23.6144C30.6637 23.6144 30.3301 23.2694 30.3301 22.8533V21.8386C30.3301 21.1485 29.7904 20.5803 29.1133 20.5803H25.6887C25.0214 20.5803 24.4719 21.1384 24.4719 21.8386V22.8533C24.4719 23.2795 24.1383 23.6245 23.736 23.6245C23.3336 23.6245 23 23.2795 23 22.8635V21.8487C23 20.3164 24.207 19.0683 25.6887 19.0683ZM42.3113 30.4437H38.8867C37.405 30.4437 36.198 31.6919 36.198 33.2242V34.2389C36.198 34.655 36.5317 35 36.934 35C37.3363 35 37.6699 34.655 37.6699 34.2389V33.2242C37.6699 32.524 38.2194 31.9659 38.8867 31.9659H42.3113C42.9884 31.9659 43.5281 32.5341 43.5281 33.2242V34.2389C43.5281 34.655 43.8617 35 44.264 35C44.6664 35 45 34.655 45 34.2389V33.2242C45 31.6919 43.793 30.4437 42.3113 30.4437ZM40.6039 29.9465C42.0856 29.9465 43.2926 28.6983 43.2926 27.1661C43.2926 25.6338 42.0856 24.3856 40.6039 24.3856C39.1222 24.3856 37.9153 25.6338 37.9153 27.1661C37.9153 28.6983 39.1222 29.9465 40.6039 29.9465ZM39.3773 27.1661C39.3773 26.4659 39.9269 25.9077 40.5941 25.9077C41.2614 25.9077 41.8109 26.476 41.8109 27.1661C41.8109 27.8561 41.2614 28.4244 40.5941 28.4244C39.9269 28.4244 39.3773 27.8561 39.3773 27.1661ZM40.4665 13.619H33.686C33.5693 13.619 33.4536 13.6313 33.3482 13.6555C32.9595 13.7483 32.7589 14.097 32.8484 14.498C32.9371 14.8803 33.218 15.06 33.6566 15.06L40.5807 15.0605L40.6874 15.0663C40.7163 15.0696 40.7403 15.0745 40.7651 15.0815C41.3168 15.2199 41.6441 15.6622 41.6441 16.2878L41.6482 17.0689L41.6441 19.119L41.0154 18.4552C40.7315 18.1469 40.3178 18.1326 40.038 18.4221C39.7625 18.691 39.7486 19.1059 40.0238 19.4054L40.9016 20.3248L41.7861 21.2279C42.0789 21.5307 42.5975 21.4815 42.8613 21.1606C43.0977 20.8754 43.331 20.6043 43.5707 20.3366L44.3983 19.481C44.6424 19.2286 44.7237 18.9241 44.5718 18.6098L44.5212 18.5207C44.282 18.1592 43.7925 18.1153 43.4663 18.4386L43.0178 18.913V16.2675C43.0178 14.6948 41.9839 13.619 40.4665 13.619ZM24.8087 27.1389C24.8532 27.0929 24.8991 27.0257 24.9458 26.9387C25.1837 26.5082 25.7282 26.4016 26.0682 26.7533L27.8345 28.59C28.1304 28.896 28.1442 29.3246 27.8639 29.5982C27.5998 29.8713 27.0366 29.8471 26.7552 29.5714L26.5149 29.3275L26.2676 29.0687V31.7325C26.2676 32.4204 26.6637 32.8709 27.304 32.9245L27.4353 32.9299L32.6613 32.9312C33.068 32.9747 33.3229 33.2427 33.3229 33.6504C33.3229 34.0598 33.0427 34.336 32.6203 34.3505C32.5652 34.3514 32.51 34.3522 32.454 34.3528L27.4451 34.3506C25.9313 34.3506 24.9047 33.2889 24.8938 31.7223L24.8929 29.017L24.6647 29.2642L24.5101 29.4233L24.3622 29.5659C24.1967 29.7215 23.9399 29.8226 23.7281 29.7913C23.5048 29.7558 23.2575 29.5307 23.2025 29.3034C23.1544 29.0875 23.2372 28.7902 23.3904 28.6159L23.7967 28.18L24.8087 27.1389Z" fill="white"/>
</svg>
