<svg width="24" height="24" viewBox="0 0 24 24" fill="none" xmlns="http://www.w3.org/2000/svg">
<path fill-rule="evenodd" clip-rule="evenodd" d="M12.7164 1.16369C12.0661 0.756913 11.2783 1.14647 11.2163 1.91082C11.2002 2.10685 11.1952 2.31113 11.198 2.56043L11.2061 2.98697C11.2049 2.99049 11.2027 2.99277 11.1986 2.99457L10.772 3.08423L10.4935 3.14706L10.2625 3.20711L10.0505 3.27245C8.81695 3.68364 7.78356 4.40908 6.95503 5.43801C6.04686 6.56647 5.55495 7.84628 5.4966 9.26236C5.49347 9.33882 5.49069 9.41323 5.48823 9.48723L5.47714 9.93923L5.47235 10.4595L5.47417 11.8046L5.46862 12.0552C5.42274 13.0475 5.09267 13.9158 4.46522 14.6695C4.15909 15.0369 3.85182 15.4154 3.54253 15.8057C2.82511 16.7121 2.8185 17.8343 3.52691 18.7333C3.98712 19.3172 4.62236 19.5965 5.41218 19.5982L8.312 19.5987L8.32213 19.6739C8.64894 21.7348 10.5266 23.1302 12.4468 22.9904L12.6439 22.9711L12.8384 22.9425C14.4477 22.6652 15.7553 21.4295 16.0702 19.6815L16.0828 19.5987L19.0021 19.5982L19.1963 19.5919C19.8971 19.5465 20.4721 19.2552 20.8972 18.7096C21.5698 17.8453 21.5246 16.6392 20.7961 15.7579L19.8533 14.6192C19.2456 13.8739 18.9234 13.041 18.8994 12.1204L18.8893 11.5845L18.8784 10.1816L18.8617 9.25713C18.8275 8.11575 18.4856 7.04116 17.8552 6.06718C16.7544 4.36539 15.2009 3.3345 13.2171 3.00386L13.1608 2.99293C13.1496 2.98785 13.1499 2.97896 13.151 2.95496C13.1512 2.94974 13.1515 2.94381 13.1516 2.93704L13.1561 2.5711C13.1561 2.33072 13.1501 2.09727 13.1376 1.86935C13.1211 1.57282 12.9716 1.32337 12.7164 1.16369ZM14.3906 19.451L14.4139 19.2817H9.93446L9.96375 19.4555L9.9974 19.6191C10.2461 20.6403 11.1608 21.3686 12.204 21.3506C13.3012 21.3308 14.2445 20.5133 14.3906 19.451ZM11.2509 4.92946C9.09587 5.35792 7.47548 7.26868 7.40998 9.46437L7.39859 10.0011L7.38362 11.6975L7.37076 12.219C7.36932 12.2611 7.36777 12.3035 7.3661 12.3469C7.32822 13.3366 7.0476 14.2557 6.52852 15.0538L6.38428 15.2694L6.23208 15.4844L6.05711 15.7191L5.15478 16.8733L5.10013 16.9453C5.0005 17.0774 4.95917 17.1463 4.94477 17.2151C4.89621 17.448 5.01929 17.6142 5.26315 17.6482L5.36016 17.6547L18.91 17.6562C19.189 17.657 19.3196 17.6024 19.3966 17.4318C19.4665 17.2767 19.4236 17.1564 19.2464 16.9472L19.0192 16.6723L18.5309 16.0715C18.514 16.0513 18.4971 16.0311 18.4796 16.0104C17.4333 14.7684 16.9179 13.3476 16.9421 11.7446C16.9518 11.0863 16.9516 10.4112 16.9421 9.71185C16.931 8.87616 16.7672 8.1348 16.426 7.45952C15.4653 5.55909 13.3333 4.5155 11.2509 4.92946Z" fill="#273239"/>
</svg>
