<svg width="25" height="24" viewBox="0 0 25 24" fill="none" xmlns="http://www.w3.org/2000/svg">
<path fill-rule="evenodd" clip-rule="evenodd" d="M19.6776 5.97645C19.6776 4.33494 18.3188 3 16.648 3H4.5296C2.85878 3 1.5 4.33494 1.5 5.97645V13.4176C1.5 15.0591 2.85878 16.394 4.5296 16.394H16.648C18.3188 16.394 19.6776 15.0591 19.6776 13.4176V5.97645ZM4.5296 4.72209H16.648C17.3745 4.72209 17.9555 5.29291 17.9555 5.97645V13.4176C17.9555 14.1011 17.3745 14.672 16.648 14.672H4.5296C3.80311 14.672 3.22209 14.1011 3.22209 13.4176V5.97645C3.22209 5.29291 3.80311 4.72209 4.5296 4.72209ZM6.28387 20.2246H21.1589C22.4505 20.2246 23.5 19.1742 23.5 17.8836V8.74021C23.5 8.21114 23.0723 7.78349 22.5433 7.78349C22.0152 7.78349 21.5866 8.21114 21.5866 8.74021V17.8836C21.5866 18.1199 21.3952 18.3112 21.1589 18.3112H6.28387C5.75481 18.3112 5.32716 18.7389 5.32716 19.2679C5.32716 19.797 5.75481 20.2246 6.28387 20.2246Z" fill="#9EA3A6"/>
</svg>
