<svg width="24" height="24" viewBox="0 0 24 24" fill="none" xmlns="http://www.w3.org/2000/svg">
<path fill-rule="evenodd" clip-rule="evenodd" d="M5.2058 20.6342C5.25408 20.6825 5.31309 20.7254 5.37747 20.763C7.22287 22.1631 9.51353 23 12.0027 23C14.4918 23 16.7825 22.1578 18.6279 20.7576C18.6923 20.7201 18.7459 20.6825 18.7996 20.6289C21.3531 18.6118 23 15.5004 23 11.9973C23 5.93538 18.0646 1 12.0027 1C5.94075 1 1 5.94075 1 12.0027C1 15.5004 2.64692 18.6172 5.2058 20.6342ZM11.9973 21.3906C10.0339 21.3906 8.20995 20.7844 6.70251 19.7491C7.49646 17.5335 9.59937 16.0261 11.9973 16.0261C13.5048 16.0261 14.921 16.6108 15.9832 17.673C16.5733 18.2631 17.0132 18.9766 17.2868 19.7491C15.7793 20.7844 13.9607 21.3906 11.9973 21.3906ZM8.51036 10.9298C8.51036 9.00927 10.0768 7.44282 11.9973 7.44282C13.9178 7.44282 15.4843 9.00927 15.4843 10.9298C15.4843 12.8503 13.9178 14.4167 11.9973 14.4167C10.0768 14.4167 8.51036 12.8503 8.51036 10.9298ZM11.9973 2.61473C17.1741 2.61473 21.3853 6.8259 21.3853 12.0027C21.3853 14.6099 20.3177 16.9703 18.5957 18.6708C18.2416 17.8822 17.7427 17.1526 17.1205 16.5304C16.4928 15.9027 15.7632 15.4092 14.9746 15.0551C16.2568 14.127 17.0936 12.625 17.0936 10.9244C17.0936 8.11339 14.8083 5.82809 11.9973 5.82809C9.1863 5.82809 6.901 8.11339 6.901 10.9244C6.901 12.625 7.73787 14.127 9.01999 15.0497C7.43209 15.7686 6.13387 17.04 5.39893 18.6654C3.67691 16.9703 2.60936 14.6099 2.60936 12.0027C2.60936 6.8259 6.82053 2.61473 11.9973 2.61473Z" fill="#273239"/>
</svg>
