<svg width="48" height="48" viewBox="0 0 48 48" fill="none" xmlns="http://www.w3.org/2000/svg">
<circle cx="24" cy="24" r="24" fill="#FD6505"/>
<path d="M27.5858 19L26.2929 17.7071C25.9024 17.3166 25.9024 16.6834 26.2929 16.2929C26.6834 15.9024 27.3166 15.9024 27.7071 16.2929L30.7071 19.2929C31.0976 19.6834 31.0976 20.3166 30.7071 20.7071L27.7071 23.7071C27.3166 24.0976 26.6834 24.0976 26.2929 23.7071C25.9024 23.3166 25.9024 22.6834 26.2929 22.2929L27.5858 21H18C17.4477 21 17 20.5523 17 20C17 19.4477 17.4477 19 18 19H27.5858Z" fill="white"/>
<path d="M17.2933 28.7075C16.9027 28.3169 16.9024 27.6834 17.2929 27.2929L20.2929 24.2929C20.6834 23.9024 21.3166 23.9024 21.7071 24.2929C22.0976 24.6834 22.0976 25.3166 21.7071 25.7071L20.4142 27H30C30.5523 27 31 27.4477 31 28C31 28.5523 30.5523 29 30 29H20.4142L21.7071 30.2929C22.0976 30.6834 22.0976 31.3166 21.7071 31.7071C21.3166 32.0976 20.6834 32.0976 20.2929 31.7071L17.2933 28.7075Z" fill="white"/>
</svg>
