<svg width="68" height="82" viewBox="0 0 68 82" fill="none" xmlns="http://www.w3.org/2000/svg">
<path d="M23.877 65.144C21.501 65.144 19.905 63.368 19.905 61.004C19.905 58.64 21.501 56.864 23.877 56.864C26.241 56.864 27.849 58.64 27.849 61.004C27.849 63.368 26.241 65.144 23.877 65.144ZM23.877 64.256C25.665 64.256 26.817 62.864 26.817 61.004C26.817 59.132 25.665 57.752 23.877 57.752C22.077 57.752 20.937 59.132 20.937 61.004C20.937 62.864 22.077 64.256 23.877 64.256ZM32.2248 65.144C31.4328 65.144 30.7368 64.772 30.2688 64.124V67.208H29.3688V59.204H30.2688V60.068C30.6888 59.48 31.4088 59.06 32.2248 59.06C33.7488 59.06 34.8047 60.212 34.8047 62.096C34.8047 63.968 33.7488 65.144 32.2248 65.144ZM31.9967 64.34C33.1608 64.34 33.8568 63.38 33.8568 62.096C33.8568 60.812 33.1608 59.864 31.9967 59.864C31.2888 59.864 30.5808 60.284 30.2688 60.788V63.404C30.5808 63.908 31.2888 64.34 31.9967 64.34ZM38.8519 65.144C37.1359 65.144 35.8999 63.908 35.8999 62.096C35.8999 60.416 37.0999 59.06 38.7559 59.06C40.5079 59.06 41.5399 60.428 41.5399 62.168V62.396H36.8479C36.9199 63.488 37.6879 64.4 38.9359 64.4C39.5959 64.4 40.2679 64.136 40.7239 63.668L41.1559 64.256C40.5799 64.832 39.7999 65.144 38.8519 65.144ZM40.6519 61.736C40.6399 60.872 40.0639 59.804 38.7439 59.804C37.5079 59.804 36.8959 60.848 36.8479 61.736H40.6519ZM47.8097 65H46.9097V61.208C46.9097 60.188 46.3937 59.864 45.6137 59.864C44.9057 59.864 44.2337 60.296 43.8977 60.764V65H42.9977V59.204H43.8977V60.044C44.3057 59.564 45.0977 59.06 45.9617 59.06C47.1737 59.06 47.8097 59.672 47.8097 60.932V65ZM4.01237 79.144C2.62038 79.144 1.60038 78.616 0.940375 77.872L1.52838 77.116C2.05638 77.704 2.92038 78.256 4.04838 78.256C5.47638 78.256 5.93238 77.488 5.93238 76.876C5.93238 74.812 1.19238 75.952 1.19238 73.096C1.19238 71.776 2.36838 70.876 3.94038 70.876C5.16438 70.876 6.11238 71.284 6.78438 71.992L6.18438 72.724C5.58438 72.064 4.74438 71.764 3.86838 71.764C2.90838 71.764 2.22438 72.28 2.22438 73.036C2.22438 74.836 6.96438 73.804 6.96438 76.792C6.96438 77.956 6.17238 79.144 4.01237 79.144ZM13.2276 79H12.3276V78.184C11.8836 78.688 11.1276 79.144 10.2636 79.144C9.05163 79.144 8.41563 78.556 8.41563 77.296V73.204H9.31563V77.02C9.31563 78.04 9.83163 78.34 10.6116 78.34C11.3196 78.34 11.9916 77.932 12.3276 77.464V73.204H13.2276V79ZM15.925 77.428C16.237 77.932 16.945 78.34 17.653 78.34C18.829 78.34 19.525 77.392 19.525 76.108C19.525 74.824 18.829 73.864 17.653 73.864C16.945 73.864 16.237 74.296 15.925 74.8V77.428ZM15.925 79H15.025V70.996H15.925V74.08C16.393 73.444 17.089 73.06 17.881 73.06C19.393 73.06 20.461 74.26 20.461 76.108C20.461 77.992 19.393 79.144 17.881 79.144C17.065 79.144 16.357 78.724 15.925 78.136V79ZM31.9091 79H30.7691L30.0611 77.224H26.0771L25.3691 79H24.2291L27.4451 70.996H28.6811L31.9091 79ZM29.7611 76.336L28.0691 72.028L26.3651 76.336H29.7611ZM35.4755 79.144C33.7475 79.144 32.5835 77.824 32.5835 76.096C32.5835 74.38 33.7475 73.06 35.4755 73.06C36.5315 73.06 37.1555 73.492 37.5995 74.068L36.9995 74.62C36.6155 74.092 36.1235 73.864 35.5235 73.864C34.2875 73.864 33.5195 74.812 33.5195 76.096C33.5195 77.38 34.2875 78.34 35.5235 78.34C36.1235 78.34 36.6155 78.1 36.9995 77.584L37.5995 78.136C37.1555 78.712 36.5315 79.144 35.4755 79.144ZM41.4169 79.144C39.6889 79.144 38.5249 77.824 38.5249 76.096C38.5249 74.38 39.6889 73.06 41.4169 73.06C42.4729 73.06 43.0969 73.492 43.5409 74.068L42.9409 74.62C42.5569 74.092 42.0649 73.864 41.4649 73.864C40.2289 73.864 39.4609 74.812 39.4609 76.096C39.4609 77.38 40.2289 78.34 41.4649 78.34C42.0649 78.34 42.5569 78.1 42.9409 77.584L43.5409 78.136C43.0969 78.712 42.4729 79.144 41.4169 79.144ZM47.3343 79.144C45.5703 79.144 44.4663 77.776 44.4663 76.096C44.4663 74.416 45.5703 73.06 47.3343 73.06C49.0983 73.06 50.2023 74.416 50.2023 76.096C50.2023 77.776 49.0983 79.144 47.3343 79.144ZM47.3343 78.34C48.5703 78.34 49.2543 77.284 49.2543 76.096C49.2543 74.92 48.5703 73.864 47.3343 73.864C46.0983 73.864 45.4023 74.92 45.4023 76.096C45.4023 77.284 46.0983 78.34 47.3343 78.34ZM56.4815 79H55.5815V78.184C55.1375 78.688 54.3815 79.144 53.5175 79.144C52.3055 79.144 51.6695 78.556 51.6695 77.296V73.204H52.5695V77.02C52.5695 78.04 53.0855 78.34 53.8655 78.34C54.5735 78.34 55.2455 77.932 55.5815 77.464V73.204H56.4815V79ZM63.0909 79H62.1909V75.208C62.1909 74.188 61.6749 73.864 60.8949 73.864C60.1869 73.864 59.5149 74.296 59.1789 74.764V79H58.2789V73.204H59.1789V74.044C59.5869 73.564 60.3789 73.06 61.2429 73.06C62.4549 73.06 63.0909 73.672 63.0909 74.932V79ZM66.3523 79.144C65.5003 79.144 65.0683 78.652 65.0683 77.788V73.996H64.1083V73.204H65.0683V71.62H65.9683V73.204H67.1443V73.996H65.9683V77.596C65.9683 78.028 66.1603 78.34 66.5563 78.34C66.8083 78.34 67.0483 78.232 67.1683 78.1L67.4323 78.772C67.2043 78.988 66.8803 79.144 66.3523 79.144Z" fill="#0D1B1F"/>
<circle cx="34" cy="24" r="24" fill="#FD6505"/>
<path fill-rule="evenodd" clip-rule="evenodd" d="M31.25 15C33.7813 15 35.8333 17.052 35.8333 19.5833C35.8333 22.1146 33.7813 24.1667 31.25 24.1667C28.7187 24.1667 26.6667 22.1146 26.6667 19.5833C26.6667 17.052 28.7187 15 31.25 15ZM31.25 16.8333C29.7312 16.8333 28.5 18.0646 28.5 19.5833C28.5 21.1021 29.7312 22.3333 31.25 22.3333C32.7688 22.3333 34 21.1021 34 19.5833C34 18.0646 32.7688 16.8333 31.25 16.8333ZM39.5 30.5833V32.4167C39.5 32.9229 39.0896 33.3333 38.5833 33.3333C38.0771 33.3333 37.6667 32.9229 37.6667 32.4167V30.5833C37.6667 29.0646 36.4354 27.8333 34.9167 27.8333H27.5833C26.0646 27.8333 24.8333 29.0646 24.8333 30.5833V32.4167C24.8333 32.9229 24.4229 33.3333 23.9167 33.3333C23.4104 33.3333 23 32.9229 23 32.4167V30.5833C23 28.052 25.052 26 27.5833 26H34.9167C37.448 26 39.5 28.052 39.5 30.5833ZM45 32.4167V30.5833C44.9984 28.4939 43.5849 26.6705 41.5625 26.1483C41.0723 26.0217 40.5723 26.3165 40.4458 26.8067C40.3192 27.2969 40.614 27.7968 41.1042 27.9234C42.3176 28.2367 43.1657 29.3308 43.1667 30.584L43.1667 32.4167C43.1667 32.9229 43.5771 33.3333 44.0833 33.3333C44.5896 33.3333 45 32.9229 45 32.4167ZM39.5072 19.5879C39.5072 18.3318 38.6561 17.2354 37.4393 16.9239C36.9489 16.7983 36.6531 16.2989 36.7786 15.8085C36.9042 15.318 37.4036 15.0222 37.894 15.1478C39.9221 15.6671 41.3405 17.4945 41.3405 19.5879C41.3405 21.6814 39.9221 23.5088 37.894 24.028C37.4036 24.1536 36.9042 23.8578 36.7786 23.3674C36.6531 22.8769 36.9489 22.3776 37.4393 22.252C38.6561 21.9404 39.5072 20.844 39.5072 19.5879Z" fill="white"/>
</svg>
