<svg width="24" height="24" viewBox="0 0 24 24" fill="none" xmlns="http://www.w3.org/2000/svg">
<path d="M15.5858 7L14.2929 5.70711C13.9024 5.31658 13.9024 4.68342 14.2929 4.29289C14.6834 3.90237 15.3166 3.90237 15.7071 4.29289L18.7071 7.29289C19.0976 7.68342 19.0976 8.31658 18.7071 8.70711L15.7071 11.7071C15.3166 12.0976 14.6834 12.0976 14.2929 11.7071C13.9024 11.3166 13.9024 10.6834 14.2929 10.2929L15.5858 9H6C5.44771 9 5 8.55228 5 8C5 7.44772 5.44771 7 6 7H15.5858Z" fill="#9EA3A6"/>
<path d="M5.29325 16.7075C4.90273 16.3169 4.90237 15.6834 5.29289 15.2929L8.29289 12.2929C8.68342 11.9024 9.31658 11.9024 9.70711 12.2929C10.0976 12.6834 10.0976 13.3166 9.70711 13.7071L8.41421 15H18C18.5523 15 19 15.4477 19 16C19 16.5523 18.5523 17 18 17H8.41421L9.70711 18.2929C10.0976 18.6834 10.0976 19.3166 9.70711 19.7071C9.31658 20.0976 8.68342 20.0976 8.29289 19.7071L5.29325 16.7075Z" fill="#9EA3A6"/>
</svg>
