<svg width="25" height="24" viewBox="0 0 25 24" fill="none" xmlns="http://www.w3.org/2000/svg">
<path fill-rule="evenodd" clip-rule="evenodd" d="M14.361 1.16636L14.1757 1.2489L4.92567 5.86342C3.01131 5.99672 1.5 7.58821 1.5 9.53214V18.8196C1.5 20.8509 3.1502 22.4974 5.18611 22.4974H18.4841C20.52 22.4974 22.1702 20.8509 22.1702 18.8196V18.2827C22.9572 17.9019 23.5 17.097 23.5 16.1661V12.1857C23.5 11.2548 22.9572 10.4499 22.1702 10.0691V9.53214C22.1702 7.72712 20.8672 6.22598 19.1484 5.91394L17.3375 2.30044C16.7867 1.19984 15.4864 0.718878 14.361 1.16636ZM20.1172 9.83474V9.53214C20.1172 8.63791 19.3955 7.91213 18.5015 7.90285C18.4888 7.90305 18.4761 7.90302 18.4635 7.90276H5.20833C5.19545 7.90303 5.18258 7.90305 5.16973 7.90284C4.27522 7.9116 3.55302 8.63758 3.55302 9.53214V18.8196C3.55302 19.7196 4.28405 20.449 5.18611 20.449H18.4841C19.3862 20.449 20.1172 19.7196 20.1172 18.8196V18.517H17.8192C15.4163 18.517 13.4682 16.5734 13.4682 14.1759C13.4682 11.7784 15.4163 9.83474 17.8192 9.83474H20.1172ZM21.1437 16.4687H17.8192C16.5501 16.4687 15.5212 15.4421 15.5212 14.1759C15.5212 12.9097 16.5501 11.8831 17.8192 11.8831H21.1437C21.3108 11.8831 21.447 12.019 21.447 12.1857V16.1661C21.447 16.3328 21.3108 16.4687 21.1437 16.4687ZM16.8232 5.85439H9.53484L15.0952 3.08076C15.2445 3.00619 15.4263 3.0667 15.501 3.216L16.8232 5.85439Z" fill="#9EA3A6"/>
</svg>
